<svg xmlns="http://www.w3.org/2000/svg" xmlns:xlink="http://www.w3.org/1999/xlink" version="1.1" x="0px" y="0px" viewBox="0 0 100 125" style="enable-background:new 0 0 100 100;" xml:space="preserve"><g><path d="M71.8,63c-3,0-5.4,2.4-5.4,5.4s2.4,5.4,5.4,5.4s5.4-2.4,5.4-5.4C77.3,65.5,74.8,63,71.8,63z M71.8,72.3   c-2.2,0-3.9-1.8-3.9-3.9c0-2.2,1.8-3.9,3.9-3.9c2.2,0,3.9,1.8,3.9,3.9C75.8,70.6,74,72.3,71.8,72.3z M31.3,58.9   c-1.7,0-3.3,0.3-4.8,0.9v-0.4c1.1-0.9,2.5-2.6,2.5-4.2v-5.4c0-2.7-2.2-4.8-4.8-4.8H11.8C9.2,45,7,47.2,7,49.8v5.4   c0,2.7,2.2,4.8,4.8,4.8h8.9l2,2c-2.9,2.4-4.7,6-4.7,10.1c0,6.8,5.1,12.4,11.7,13.2c0.5,0.1,1,0.1,1.5,0.1c0.6,0,1.1-0.1,1.7-0.1   c6.5-0.8,11.6-6.4,11.6-13.1C44.6,64.8,38.6,58.9,31.3,58.9z M21.5,58.8c-0.1-0.1-0.3-0.2-0.5-0.2h-9.2c-1.8,0-3.3-1.5-3.3-3.3   v-5.4c0-1.8,1.5-3.3,3.3-3.3h12.4c1.8,0,3.3,1.5,3.3,3.3v5.4c0,1-1.2,2.5-2.2,3.2c-0.2,0.1-0.3,0.4-0.3,0.6v3.1L21.5,58.8z    M31.3,83.9c-1.1,0-2.3-0.2-3.4-0.6L27,79.6c0.1-2.2,2.8-3,4.5-3s4.3,0.8,4.5,3l-0.9,3.6C33.9,83.7,32.6,83.9,31.3,83.9z    M36.8,82.5l0.7-2.8c0-3.1-3.2-4.7-6-4.7l0,0c-2.8,0-6,1.5-6,4.7l0.8,3c-4-1.9-6.7-5.9-6.7-10.6c0-3.6,1.6-6.9,4.2-9l1.4,1.4   c0.1,0.1,0.3,0.2,0.5,0.2c0.1,0,0.2,0,0.3-0.1c0.3-0.1,0.5-0.4,0.5-0.7v-2.6c1.5-0.7,3.1-1,4.8-1c6.5,0,11.8,5.3,11.8,11.8   C43.1,76.7,40.5,80.6,36.8,82.5z M31.5,63c-3,0-5.4,2.4-5.4,5.4s2.4,5.4,5.4,5.4s5.4-2.4,5.4-5.4C36.9,65.5,34.5,63,31.5,63z    M31.5,72.3c-2.2,0-3.9-1.8-3.9-3.9c0-2.2,1.8-3.9,3.9-3.9s3.9,1.8,3.9,3.9C35.4,70.6,33.7,72.3,31.5,72.3z M64.9,35.4   c0-7.3-5.9-13.3-13.3-13.3c-1.3,0-2.5,0.2-3.6,0.5v-0.5c1.1-0.8,2.4-2.5,2.4-4.2v-5.4c0-2.7-2.2-4.8-4.8-4.8H33.3   c-2.7,0-4.8,2.2-4.8,4.8V18c0,2.7,2.2,4.8,4.8,4.8h8.9l1.8,1.8c-3.4,2.4-5.6,6.3-5.6,10.8c0,7.3,5.9,13.3,13.3,13.3   S64.9,42.7,64.9,35.4z M43,21.5c-0.1-0.1-0.3-0.2-0.5-0.2h-9.2c-1.8,0-3.3-1.5-3.3-3.3v-5.4c0-1.8,1.5-3.3,3.3-3.3h12.4   c1.8,0,3.3,1.5,3.3,3.3V18c0,1-1.1,2.5-2.1,3.2c-0.2,0.1-0.3,0.4-0.3,0.6V25L43,21.5z M55.4,46.3c-1.2,0.5-2.4,0.8-3.7,0.8   c-1.1,0-2.3-0.2-3.4-0.6l-0.9-3.7c0.1-2.2,2.8-3,4.5-3s4.3,0.8,4.5,3L55.4,46.3z M57.1,45.8l0.8-2.9c0-3.1-3.2-4.7-6-4.7l0,0   c-2.8,0-6,1.5-6,4.7l0.8,3.1c-4-1.9-6.7-5.9-6.7-10.6c0-4,2-7.6,5.2-9.7l1.6,1.6c0.1,0.1,0.3,0.2,0.5,0.2c0.1,0,0.2,0,0.3-0.1   c0.3-0.1,0.5-0.4,0.5-0.7v-2.6c1.1-0.4,2.4-0.6,3.6-0.6c6.5,0,11.8,5.3,11.8,11.8C63.4,39.9,60.8,43.8,57.1,45.8z M54.9,27.2   c-0.6-0.4-1.2-0.7-1.9-0.8c-0.4-0.1-0.7-0.1-1.1-0.1c-3,0-5.4,2.4-5.4,5.4s2.4,5.4,5.4,5.4c0.4,0,0.7,0,1.1-0.1   c0.7-0.1,1.4-0.4,1.9-0.8c1.4-1,2.4-2.6,2.4-4.5S56.3,28.2,54.9,27.2z M51.8,35.6c-2.2,0-3.9-1.8-3.9-3.9s1.8-3.9,3.9-3.9   c2.2,0,3.9,1.8,3.9,3.9S54,35.6,51.8,35.6z M90.7,45H78.3c-2.7,0-4.8,2.2-4.8,4.8v5.4c0,1.5,1.1,3.2,2.3,4.1v0.2   c-1.3-0.4-2.7-0.7-4.1-0.7c-7.3,0-13.3,5.9-13.3,13.3c0,6.1,4.1,11.2,9.7,12.7c1.2,0.4,2.4,0.7,3.7,0.7c1.7,0,3.4-0.4,4.9-1.2h0.1   l0,0c4.8-2,8.1-6.7,8.1-12.2c0-4.2-1.9-7.9-4.9-10.3l1.8-1.8h8.9c2.7,0,4.8-2.2,4.8-4.8v-5.4C95.5,47.2,93.4,45,90.7,45z    M75.5,83.3c-1.2,0.5-2.4,0.8-3.7,0.8c-1.1,0-2.3-0.2-3.4-0.6l-0.9-3.7c0.1-2.2,2.8-3,4.5-3s4.3,0.8,4.5,3L75.5,83.3z M83.4,72.1   c0,4.4-2.5,8.3-6.1,10.3l0.7-2.6c0-3.1-3.2-4.7-6-4.7l0,0c-2.8,0-6,1.5-6,4.7l0.7,2.9c-4-1.9-6.8-5.9-6.8-10.6   c0-6.5,5.3-11.8,11.8-11.8c1.5,0,2.9,0.3,4.2,0.8L76,64c0,0.3,0.2,0.6,0.5,0.7c0.1,0,0.2,0.1,0.3,0.1c0.2,0,0.4-0.1,0.5-0.2   l1.6-1.6C81.7,65.1,83.4,68.4,83.4,72.1z M94,55.2c0,1.8-1.5,3.3-3.3,3.3h-9.2c-0.2,0-0.4,0.1-0.5,0.2l-3.6,3.5l-0.2-3.4   c0-0.2-0.1-0.5-0.3-0.6c-0.9-0.6-1.9-2-1.9-3.1v-5.4c0-1.8,1.5-3.3,3.3-3.3h12.4c1.8,0,3.3,1.5,3.3,3.3C94,49.7,94,55.2,94,55.2z    M61.7,52.7l-4.4-0.9c-0.4-0.1-0.7-0.5-0.6-0.9c0.1-0.4,0.5-0.7,0.9-0.6l0.9,0.2l2.9,0.6l0.8-2.7l0.2-0.7c0.1-0.4,0.5-0.6,0.9-0.5   s0.6,0.5,0.5,0.9l-1.2,4.1c-0.1,0.3-0.4,0.5-0.7,0.5C61.8,52.7,61.7,52.7,61.7,52.7z M64.3,56.5l0.8-2.7l0.2-0.7   c0.1-0.4,0.5-0.6,0.9-0.5s0.6,0.5,0.5,0.9l-1.2,4.1c-0.1,0.3-0.4,0.5-0.7,0.5h-0.1l-4.4-0.9c-0.4-0.1-0.7-0.5-0.6-0.9   c0.1-0.4,0.5-0.7,0.9-0.6l0.9,0.2L64.3,56.5z M35,55.3l4.4-1c0.4-0.1,0.8,0.1,0.9,0.5l1.3,4c0.1,0.4-0.1,0.8-0.5,0.9   c-0.1,0-0.2,0-0.2,0c-0.3,0-0.6-0.2-0.7-0.5L40,58.5l-0.9-2.6l-2.9,0.7l-0.8,0.2c-0.4,0.1-0.8-0.2-0.9-0.6   C34.4,55.8,34.6,55.4,35,55.3z M37.1,50.8c-0.1-0.4,0.2-0.8,0.6-0.9l4.4-1c0.4-0.1,0.8,0.1,0.9,0.5l1.3,4c0.1,0.4-0.1,0.8-0.5,0.9   c-0.1,0-0.2,0-0.2,0c-0.3,0-0.6-0.2-0.7-0.5l-0.2-0.7l-0.9-2.6l-2.9,0.7L38,51.4C37.6,51.5,37.2,51.2,37.1,50.8z M56.5,74.9   c0.3,0.3,0.3,0.7,0.1,1.1c-0.1,0.2-0.4,0.3-0.6,0.3c-0.2,0-0.4-0.1-0.5-0.2l-3.2-2.8c-0.3-0.3-0.3-0.7-0.1-1l2.7-3.6   c0.2-0.3,0.7-0.4,1-0.2c0.3,0.2,0.4,0.7,0.2,1l-0.5,0.7l-1.8,2.4l2.1,1.8L56.5,74.9z M50.9,74.7c0.3,0.3,0.3,0.7,0.1,1.1   C50.8,76,50.6,76,50.4,76c-0.2,0-0.4-0.1-0.5-0.2L46.7,73c-0.3-0.3-0.3-0.7-0.1-1l2.7-3.6c0.2-0.3,0.7-0.4,1-0.2   c0.3,0.2,0.4,0.7,0.2,1L50,70l-1.8,2.4l2.1,1.8L50.9,74.7z"/></g><text x="0" y="115" fill="#000000" font-size="5px" font-weight="bold" font-family="'Helvetica Neue', Helvetica, Arial-Unicode, Arial, Sans-serif">Created by Alexis Sabarre</text><text x="0" y="120" fill="#000000" font-size="5px" font-weight="bold" font-family="'Helvetica Neue', Helvetica, Arial-Unicode, Arial, Sans-serif">from the Noun Project</text></svg>