<svg xmlns="http://www.w3.org/2000/svg" xmlns:xlink="http://www.w3.org/1999/xlink" version="1.1" x="0px" y="0px" viewBox="0 0 53 66.25" style="enable-background:new 0 0 53 53;" xml:space="preserve"><g><path d="M7.2753906,49.5c0,0.4140625,0.3359375,0.75,0.75,0.75h2.6328125h31.6835938h2.6328125   c0.4140625,0,0.75-0.3359375,0.75-0.75s-0.3359375-0.75-0.75-0.75h-1.7965088l1.7652588-16.0952148   c0.0859375-0.7822266-0.1660156-1.5668945-0.6914063-2.152832s-1.2783203-0.921875-2.0644684-0.921875h-2.0126801v-1.1523438   c0-4.9314575-3.8899536-8.9604492-8.7611694-9.2072144c2.4420166-1.6065063,4.0599976-4.3674927,4.0599976-7.5027466   c0-4.9448242-4.0283203-8.9677734-8.9794922-8.9677734c-4.9453125,0-8.9677734,4.0229492-8.9677734,8.9677734   c0,3.135437,1.6157837,5.8966064,4.0548706,7.5030518c-4.8687744,0.2493286-8.7560425,4.2772217-8.7560425,9.2069092v1.1523438   h-2.0127115c-0.7861166,0-1.5390463,0.3359375-2.0644369,0.921875s-0.7773438,1.3706055-0.6914063,2.152832L9.8218994,48.75   H8.0253906C7.6113281,48.75,7.2753906,49.0859375,7.2753906,49.5z M19.0263672,11.7177734   c0-4.1176758,3.3496094-7.4677734,7.4677734-7.4677734c4.1240234,0,7.4794922,3.3500977,7.4794922,7.4677734   c0,4.1240234-3.3554688,7.4790039-7.4794922,7.4790039C22.3759766,19.1967773,19.0263672,15.8417969,19.0263672,11.7177734z    M14.3251953,28.4277344c0-4.2626953,3.4677734-7.730957,7.7304688-7.730957h8.8886719   c4.2626953,0,7.7304688,3.4682617,7.7304688,7.730957v1.1523438H14.3251953V28.4277344z M9.546875,32.4916992   c-0.0390625-0.3642578,0.0732422-0.715332,0.3183594-0.9887695c0.2441406-0.2724609,0.5810547-0.4228516,0.9472494-0.4228516   h31.375c0.3662262,0,0.7031403,0.1503906,0.9472809,0.4228516c0.2451172,0.2734375,0.3574219,0.6245117,0.3183594,0.9887695   L41.6699219,48.75H11.3300781L9.546875,32.4916992z"/><path d="M26.5,35.5810547c-2.3896484,0-4.3339844,1.9443359-4.3339844,4.3339844   S24.1103516,44.2490234,26.5,44.2490234s4.3339844-1.9443359,4.3339844-4.3339844S28.8896484,35.5810547,26.5,35.5810547z    M26.5,42.7490234c-1.5625172,0-2.8339844-1.2714844-2.8339844-2.8339844S24.9374828,37.0810547,26.5,37.0810547   c1.5624828,0,2.8339844,1.2714844,2.8339844,2.8339844S28.0624828,42.7490234,26.5,42.7490234z"/></g><text x="0" y="68" fill="#000000" font-size="5px" font-weight="bold" font-family="'Helvetica Neue', Helvetica, Arial-Unicode, Arial, Sans-serif">Created by VectorsLab</text><text x="0" y="73" fill="#000000" font-size="5px" font-weight="bold" font-family="'Helvetica Neue', Helvetica, Arial-Unicode, Arial, Sans-serif">from the Noun Project</text></svg>