<svg xmlns="http://www.w3.org/2000/svg" viewBox="0 0 64 80" x="0px" y="0px"><title>01</title><path d="M50.0166,9.3125H43.54474a1.7299,1.7299,0,0,0-1.783-1.28369h-2.041V7.64648C39.7207,5.63574,37.77734,4,35.38965,4H28.60986C26.22217,4,24.2793,5.63574,24.2793,7.64648v.38233h-2.041a1.72947,1.72947,0,0,0-1.783,1.28369H13.9834a3.31817,3.31817,0,0,0-3.3208,3.30811V56.70166A3.31331,3.31331,0,0,0,13.9834,60h4.023a1,1,0,0,0,0-2h-4.023a1.31111,1.31111,0,0,1-1.3208-1.29834v-44.081a1.3159,1.3159,0,0,1,1.3208-1.30811h6.4414v2.06543H15.63867a1.00005,1.00005,0,0,0-1,1V54.95068a1.00005,1.00005,0,0,0,1,1H48.36133a.99974.99974,0,0,0,1-1V30.40332a1,1,0,0,0-2,0V53.95068H16.63867V15.37793H20.4248v.84033a1.67841,1.67841,0,0,0,1.81348,1.54883H41.76172a1.67871,1.67871,0,0,0,1.81348-1.54883v-.84033h3.78613V26.102a1,1,0,0,0,2,0V14.37793a.99974.99974,0,0,0-1-1H43.5752V11.3125h6.4414a1.31611,1.31611,0,0,1,1.32031,1.30811V56.70166A1.31131,1.31131,0,0,1,50.0166,58H22.6709a1,1,0,0,0,0,2H50.0166a3.31289,3.31289,0,0,0,3.32031-3.29834v-44.081A3.31775,3.31775,0,0,0,50.0166,9.3125Zm-8.4414,6.45459-19.1504-.00537V10.02881h2.84241l.01209.00244a1.00005,1.00005,0,0,0,1-1V7.64648C26.2793,6.75391,27.34668,6,28.60986,6h6.77979c1.26367,0,2.331.75391,2.331,1.64648V9.03125a.99974.99974,0,0,0,1,1l.012-.00244,2.84247.00488Z"/><path d="M43.52637,22.86523h-23.729a1,1,0,0,0,0,2h23.729a1,1,0,0,0,0-2Z"/><path d="M19.79736,30.96631h16.27a1,1,0,0,0,0-2h-16.27a1,1,0,0,0,0,2Z"/><path d="M19.79736,37.06738h22.1919a1,1,0,0,0,0-2H19.79736a1,1,0,1,0,0,2Z"/><path d="M44.52637,42.16846a.99974.99974,0,0,0-1-1h-23.729a1,1,0,0,0,0,2h23.729A.99974.99974,0,0,0,44.52637,42.16846Z"/><path d="M19.79736,47.27a1,1,0,1,0,0,2H40.58105a1,1,0,0,0,0-2Z"/><text x="0" y="79" fill="#000000" font-size="5px" font-weight="bold" font-family="'Helvetica Neue', Helvetica, Arial-Unicode, Arial, Sans-serif">Created by Dadih Ardianto</text><text x="0" y="84" fill="#000000" font-size="5px" font-weight="bold" font-family="'Helvetica Neue', Helvetica, Arial-Unicode, Arial, Sans-serif">from the Noun Project</text></svg>