<svg width="35" height="35" viewBox="0 0 35 35" fill="none" xmlns="http://www.w3.org/2000/svg">
<mask id="mask0_1503_204" style="mask-type:alpha" maskUnits="userSpaceOnUse" x="0" y="0" width="35" height="35">
<rect x="0.5" y="0.5" width="34.0626" height="34.0626" fill="#D9D9D9"/>
</mask>
<g mask="url(#mask0_1503_204)">
<path d="M28.8145 30.3048C25.8577 30.3048 22.9364 29.6602 20.0505 28.371C17.1647 27.0818 14.539 25.2545 12.1735 22.8891C9.80807 20.5236 7.98075 17.8979 6.69158 15.0121C5.4024 12.1262 4.75781 9.20488 4.75781 6.24805C4.75781 5.82227 4.89974 5.46745 5.1836 5.1836C5.46745 4.89974 5.82227 4.75781 6.24805 4.75781H11.9961C12.3273 4.75781 12.623 4.87017 12.8832 5.09489C13.1434 5.31961 13.2971 5.58572 13.3444 5.89323L14.267 10.8607C14.3143 11.2392 14.3024 11.5585 14.2315 11.8187C14.1605 12.0789 14.0304 12.3036 13.8412 12.4929L10.3994 15.9701C10.8725 16.8453 11.4343 17.691 12.0848 18.507C12.7353 19.3231 13.4509 20.1096 14.2315 20.8666C14.9648 21.5999 15.7335 22.28 16.5378 22.9068C17.3421 23.5337 18.1936 24.1073 19.0925 24.6277L22.4278 21.2924C22.6407 21.0795 22.9186 20.9198 23.2616 20.8134C23.6046 20.7069 23.9417 20.6774 24.2729 20.7247L29.1694 21.7182C29.5005 21.8128 29.7726 21.9843 29.9854 22.2326C30.1983 22.481 30.3048 22.759 30.3048 23.0665V28.8145C30.3048 29.2403 30.1629 29.5951 29.879 29.879C29.5951 30.1629 29.2403 30.3048 28.8145 30.3048ZM9.05112 13.2735L11.3929 10.9317L10.7897 7.59636H7.63185C7.75012 8.5662 7.9157 9.52421 8.12859 10.4704C8.34148 11.4166 8.64899 12.3509 9.05112 13.2735ZM21.7536 25.976C22.6762 26.3781 23.6164 26.6975 24.5745 26.934C25.5325 27.1705 26.4964 27.3243 27.4662 27.3953V24.2729L24.1309 23.5987L21.7536 25.976Z" fill="#1C1B1F"/>
</g>
</svg>
