<svg width="35" height="35" viewBox="0 0 35 35" fill="none" xmlns="http://www.w3.org/2000/svg">
<mask id="mask0_1503_199" style="mask-type:alpha" maskUnits="userSpaceOnUse" x="0" y="0" width="35" height="35">
<rect x="0.4375" y="0.5" width="34.0626" height="34.0626" fill="#D9D9D9"/>
</mask>
<g mask="url(#mask0_1503_199)">
<path d="M17.4686 31.7239C14.9612 31.7239 12.9151 31.3277 11.3303 30.5353C9.7454 29.7428 8.95297 28.7198 8.95297 27.4661C8.95297 26.8984 9.12446 26.372 9.46746 25.8871C9.81045 25.4022 10.2895 24.9823 10.9045 24.6275L13.1398 26.721C12.9269 26.8156 12.6963 26.922 12.4479 27.0403C12.1996 27.1586 12.0044 27.3005 11.8625 27.4661C12.17 27.8445 12.8796 28.1757 13.9914 28.4596C15.1032 28.7434 16.2622 28.8853 17.4686 28.8853C18.675 28.8853 19.84 28.7434 20.9636 28.4596C22.0872 28.1757 22.8027 27.8445 23.1102 27.4661C22.9447 27.2768 22.7318 27.1231 22.4716 27.0048C22.2114 26.8865 21.963 26.7801 21.7265 26.6855L23.9263 24.5566C24.5887 24.935 25.0972 25.3667 25.4521 25.8516C25.8069 26.3366 25.9843 26.8747 25.9843 27.4661C25.9843 28.7198 25.1919 29.7428 23.607 30.5353C22.0221 31.3277 19.976 31.7239 17.4686 31.7239ZM17.5041 23.9179C19.8459 22.1911 21.6082 20.4584 22.7909 18.7198C23.9736 16.9812 24.565 15.2366 24.565 13.4862C24.565 11.0734 23.7962 9.25203 22.2587 8.02199C20.7211 6.79195 19.1244 6.17693 17.4686 6.17693C15.8128 6.17693 14.2161 6.79195 12.6786 8.02199C11.141 9.25203 10.3722 11.0734 10.3722 13.4862C10.3722 15.0711 10.9518 16.721 12.1109 18.4359C13.2699 20.1509 15.0677 21.9782 17.5041 23.9179ZM17.4686 27.4661C14.1333 25.006 11.6437 22.6169 9.99968 20.2987C8.35569 17.9806 7.53369 15.7097 7.53369 13.4862C7.53369 11.8067 7.83529 10.3342 8.43848 9.06871C9.04167 7.80318 9.81636 6.74464 10.7625 5.89308C11.7087 5.04151 12.7732 4.40284 13.9559 3.97705C15.1386 3.55127 16.3095 3.33838 17.4686 3.33838C18.6277 3.33838 19.7986 3.55127 20.9813 3.97705C22.1641 4.40284 23.2285 5.04151 24.1747 5.89308C25.1209 6.74464 25.8956 7.80318 26.4988 9.06871C27.102 10.3342 27.4036 11.8067 27.4036 13.4862C27.4036 15.7097 26.5816 17.9806 24.9376 20.2987C23.2936 22.6169 20.8039 25.006 17.4686 27.4661ZM17.4686 16.1119C18.2492 16.1119 18.9175 15.8339 19.4734 15.278C20.0292 14.7222 20.3072 14.0539 20.3072 13.2733C20.3072 12.4927 20.0292 11.8245 19.4734 11.2686C18.9175 10.7127 18.2492 10.4348 17.4686 10.4348C16.688 10.4348 16.0198 10.7127 15.4639 11.2686C14.908 11.8245 14.6301 12.4927 14.6301 13.2733C14.6301 14.0539 14.908 14.7222 15.4639 15.278C16.0198 15.8339 16.688 16.1119 17.4686 16.1119Z" fill="#1C1B1F"/>
</g>
</svg>
