<svg width="593" height="612" viewBox="0 0 593 612" fill="none" xmlns="http://www.w3.org/2000/svg">
<path d="M124.723 42.8866V39.252L131.474 41.978H136.778L138.225 45.6126L145.458 46.9756H148.352L150.28 52.4276V57.4253L151.727 60.1513L153.656 59.2426L157.996 62.8773V65.6033H159.925L161.854 68.3293L166.676 71.0553L164.747 76.5073H168.605L171.98 78.3247L176.803 83.3223V85.1397L172.463 83.3223L169.569 79.6877L167.158 80.5963H164.265L163.783 82.4137L160.889 83.3223L158.96 85.1397L155.103 88.32L153.174 86.957V96.0437H149.798L147.387 98.7697H143.529L141.6 101.041L139.672 98.7697H131.474L129.063 97.4067V91.9547H123.758V90.1374L120.865 85.594L117.007 82.4137L114.114 79.2333L117.489 76.5073V71.964L114.114 71.0553V66.512L117.489 64.6947L118.936 61.9687H112.667L112.185 58.334L114.114 57.4253V54.245H109.774V49.2473H114.114L115.078 46.5213H117.007L118.936 42.8866H124.723Z" fill="url(#paint0_linear_991_19571)" fill-opacity="0.6" stroke="#90D8FF"/>
<path d="M189.342 87.6903L190.293 86.3076L193.622 87.6903L196 91.3775V93.682H198.377H202.658L206.938 100.135V102.9L207.889 106.126L210.742 108.431L212.169 110.735L210.742 114.422L213.12 117.649L210.742 122.719L213.596 124.101L215.022 125.484H213.12L212.169 127.328H208.84L203.609 125.484L201.706 126.867H198.377L195.049 129.171L192.671 132.398L191.244 136.085L191.72 138.85L192.671 141.616L191.72 142.998L190.293 143.92L189.342 145.764L185.062 144.842H183.159L180.306 141.616L179.355 137.928L173.648 134.702L170.319 132.398V128.71L167.466 124.562H159.381V118.571L156.528 114.422L156.052 112.118L152.723 108.431H150.345V102.9H152.723L154.625 99.2128L153.674 96.4474V86.7685L156.052 88.6121L161.759 83.5422L164.137 82.6204L165.088 80.7768H167.466L169.843 79.855L172.697 83.5422L176.977 85.3858L180.306 87.6903H189.342Z" fill="#054365" stroke="#90D8FF"/>
<path d="M147.384 99.0885L149.31 96.3315H153.162L154.125 99.548L152.199 102.764H149.791V108.738H152.199L156.05 112.414V114.711L158.939 118.387V124.36H167.125L170.014 128.496L170.495 132.631L173.384 134.469L170.977 135.848L171.94 139.983L173.866 144.119V145.957H170.977L168.088 150.551L164.717 152.389L162.31 151.47L159.902 154.227V156.984L157.976 158.822L155.569 159.741H144.976L142.087 161.12L140.643 163.417L139.198 160.66L137.754 156.984L135.346 156.525L132.457 155.606H127.643L125.717 156.525L122.828 155.606H116.568L112.716 152.389V145.038L117.531 139.064L126.68 130.793V122.063L124.272 116.09L130.05 109.197L134.865 106.44L140.161 104.143L141.606 101.845L143.532 99.0885H147.384Z" fill="url(#paint1_linear_991_19571)" fill-opacity="0.6" stroke="#90D8FF"/>
<path d="M192.63 147.102L189.741 145.284V143.33L191.667 142.555L192.63 141.191L191.185 138.463V135.734L192.63 132.096L195.518 128.913L198.888 126.64H202.74L203.703 125.276L209.481 126.64H212.369L213.814 125.276H215.258L219.591 121.638L220.554 123.002L221.517 126.64L226.331 130.732L229.22 133.006L236.442 133.461L238.368 133.915L239.812 137.098L241.738 138.463L243.664 142.1L251.367 143.919L253.293 145.284L256.182 148.467V149.831L254.256 152.559L251.367 153.469L250.404 156.197L247.516 158.016L245.59 160.744V163.018V165.292L243.664 168.02V172.112L242.701 174.386L239.812 176.66V180.298L238.368 181.662L235.961 180.298H232.109L228.739 178.024L227.294 179.388L224.887 178.024L221.517 174.386H218.628L215.258 172.112L213.814 169.839L215.258 167.11L212.369 165.292L208.518 162.108L206.592 159.835L205.147 156.197L200.814 154.833V159.835L198.888 162.108H194.555L192.63 159.835L193.592 154.833V153.469L194.555 150.74V148.467L192.63 147.102Z" fill="url(#paint2_linear_991_19571)" fill-opacity="0.6" stroke="#90D8FF"/>
<path d="M171.339 135.498L173.746 134.583L179.042 137.784L180.968 141.442L183.375 144.643L185.783 144.186L189.153 145.558V147.844L186.746 149.673L185.783 151.502L182.894 154.246L181.449 155.618L180.968 158.819L179.042 160.648L178.079 163.392V166.593L180.005 168.422V175.281L179.042 178.025L181.449 180.311L183.375 182.14V187.628L185.783 189.914L187.708 194.944V197.688L186.746 201.346L185.301 202.718L183.375 202.261L180.968 203.633L177.116 206.376L174.228 203.633V197.688L172.783 194.487L171.339 194.944L170.376 197.688L168.45 199.06L164.117 194.487V197.688L160.265 199.06L158.821 203.633L155.932 201.346V194.487L152.562 190.372L150.155 186.713L147.266 183.055V179.397L145.34 177.11L144.377 173.452V170.708H138.118L133.304 168.422L131.378 166.593V168.879H128.008L126.563 166.593V163.392L125.119 158.819L122.712 155.618L126.563 156.533L128.008 155.618H132.822L135.711 156.533L138.118 156.99L139.563 161.105L141.007 163.392L142.452 161.105L145.34 159.734H155.932L158.821 158.819L160.265 156.99V154.246L162.673 151.502L165.08 152.417L168.45 150.588L171.339 146.015H174.228V144.186L172.302 140.07L171.339 135.498Z" fill="url(#paint3_linear_991_19571)" fill-opacity="0.6" stroke="#90D8FF"/>
<path d="M138.176 171.583H144.909V173.871V177.988L147.314 180.276V183.936L150.199 186.681L151.642 189.884L155.971 194.459V202.236L159.337 204.066L160.78 199.491L164.146 198.576V194.459L168.475 199.491L170.398 198.576L171.36 195.374H172.803L173.765 198.576V204.066L176.65 206.811L180.498 204.981L183.864 207.726V210.929L186.75 214.589V217.791L188.673 219.621L185.307 222.366L183.864 225.569L185.307 226.484L194.444 222.366H195.887L199.735 223.739V226.484L195.887 229.687H194.444L192.521 232.432H190.597L186.75 234.262H182.421L180.498 237.922H178.574L176.65 240.209L171.36 242.497L169.436 245.242L167.032 246.614L166.07 250.274L167.032 253.019L168.475 254.849L172.322 256.679L180.498 256.222L182.421 254.849H185.307V262.169H176.65L173.765 262.627V264.914L172.803 267.66L173.765 270.862H178.574L177.131 273.15L175.208 276.352H173.765V283.215L169.436 282.3L167.032 280.47H158.375V282.3V285.045L155.49 286.417V288.705H146.833V286.417L151.642 285.045V275.437H155.49L151.642 270.862L148.276 269.49H142.986L139.619 267.66L140.581 265.829L138.657 263.999L135.772 266.745L133.367 267.66L131.924 274.065V281.385L134.81 284.13V293.737L133.367 296.025L128.558 297.397L126.634 299.227V300.6L128.558 301.972H130.482V304.26L126.634 307.005H120.863V305.175H119.42L117.016 301.972L114.13 300.6L110.764 297.397L104.512 293.737L102.588 290.077V286.417H99.7024L96.8169 284.13L98.2597 281.385V278.64L96.8169 276.352H83.8319L80.4655 274.065L78.5418 270.862L74.6944 272.235H62.6713L58.8239 270.862L54.0147 272.235V269.49L52.091 265.829V263.084L46.3199 257.594V250.274H44.8771L39.106 249.359L34.7777 245.242V231.059L32.3731 229.687H28.0448L24.1974 227.399L22.7546 225.112V218.706L25.6401 216.876L28.0448 212.301L32.3731 209.099L33.3349 207.269L34.7777 202.236L39.106 200.406L41.5106 197.204L44.8771 199.034L48.2436 202.236L49.2054 205.439H54.0147L57.3811 202.236H70.3661L71.8088 197.204L74.6944 193.544H76.1372L80.4655 183.936L83.8319 182.106L88.1603 178.903L91.0458 177.988L93.4504 175.243L95.3741 169.753L97.7787 166.551L99.2215 161.976V159.231L104.993 154.656L109.321 152.826H113.168L117.016 156.486H122.787L125.191 160.146L126.634 164.263V166.551L128.558 169.753H131.443V166.551L133.848 169.753L138.176 171.583Z" fill="url(#paint4_linear_991_19571)" fill-opacity="0.6" stroke="#90D8FF"/>
<path d="M53.6441 275.242V272.028L59.3871 271.109L62.2586 272.028H75.1804L78.0519 271.109L79.9662 273.405L82.8377 276.161H96.238L97.6738 278.916V281.671L96.7166 283.967L99.5881 286.723H101.981V289.937L104.374 294.53L110.596 297.285L113.946 300.5L116.817 302.337L119.21 305.551H120.646V307.847L124.474 311.98L123.039 314.736H120.646L117.774 316.573V318.869V330.349H114.424L109.638 333.564V336.319L112.988 337.697H117.774L114.424 339.534L112.988 342.749L109.638 345.504H106.288L104.374 346.882L111.074 349.178V355.607L109.638 357.903H106.288L102.938 356.985L101.981 360.658V367.088H96.7166L93.3665 364.791L90.0165 365.71V369.384H86.6664L88.5807 363.873L90.0165 357.903L92.4094 355.607L90.0165 351.474V349.178L86.6664 346.882V339.534L89.9814 337.678L85.7092 335.401L86.6664 330.349H82.8377V326.676L84.7521 324.839H79.9662V330.349H77.0947V333.564L79.9662 336.319V339.534L77.0947 345.504L70.8731 349.178L66.0873 350.096L59.3871 353.77L53.6441 355.607H48.8583L45.9868 353.77L41.6796 350.096L38.3295 349.178L35.9366 345.504L30.6722 342.749L25.8863 337.697L23.0148 336.319L21.5791 332.186H18.7076L16.3147 328.053L12.9646 324.839V320.706L16.3147 318.41L18.7076 320.706H21.5791L24.4506 318.41L27.3221 318.869L32.5865 318.41L38.3295 314.736L39.7652 309.684L42.6367 307.847L44.5511 305.551L39.7652 306.47L38.3295 307.847H34.5008L28.2792 309.684L25.8863 311.98H23.0148L18.7076 309.684H16.3147L11.5288 307.847L9.13591 304.633L4.82867 301.418L1.95717 298.204L1 294.53V291.315L4.82867 289.937L6.26441 285.345V282.59L7.70016 278.916L23.0148 279.375L25.8863 282.59H28.2792H32.5865L34.5008 280.753L38.3295 279.375H41.6796L42.6367 277.538H43.5939V280.753H48.8583L51.2512 278.916L53.6441 275.242Z" fill="url(#paint5_linear_991_19571)" fill-opacity="0.6" stroke="#90D8FF"/>
<path d="M194.263 148.975L188.961 145.764L188.479 148.058L186.068 149.893L185.104 151.728L180.766 155.857L180.283 159.068L178.355 160.903L177.391 163.655V166.866L179.319 168.701V175.583L178.355 178.335L182.694 182.464V187.969L185.104 190.262L187.032 195.308V198.061L186.068 201.731L184.622 203.107L182.694 202.648L179.319 204.483L183.176 207.695L183.658 210.906L186.068 214.576V217.787L187.996 219.622L184.622 222.374L183.176 225.586L185.104 226.503L193.299 222.374H195.227L198.602 223.751H200.048L206.797 226.503L209.207 226.044L214.028 227.421L217.885 231.549V237.054L215.956 237.972V241.642L213.064 246.229L211.136 250.358H208.725L207.279 253.569H203.423L201.494 254.945V258.156L203.423 259.533L203.905 263.203L201.976 265.038H200.53V267.79L201.494 269.625V276.047L204.387 276.965L206.315 278.8L209.207 281.094L211.618 281.552L213.546 280.176H215.956V276.506L214.028 272.836H212.582L211.136 269.166L210.654 266.873L208.243 263.203V258.156L211.136 256.78L214.028 255.404H215.956V259.991L217.885 260.909L223.187 260.45L226.562 263.203H232.346L234.275 260.45L236.685 259.533L237.649 258.156H243.916V263.203H246.326L249.701 261.826H255.004L254.039 265.038L255.004 266.873H258.86L259.824 265.955L263.199 261.826L268.983 262.285L271.394 263.203L273.804 265.496L277.179 266.873L280.553 267.79L284.892 271.46H291.641L294.051 273.295L294.533 289.351H302.728L304.656 286.14L306.585 283.387L307.549 280.176L308.995 278.341L307.549 276.047V275.13H309.959L310.441 271.46L308.513 269.166L306.102 267.79L305.62 265.038V262.285L308.031 259.074L309.477 257.698L312.851 256.78L314.298 255.404L317.19 254.028L319.6 252.193L321.529 250.358L323.457 249.899L326.349 250.816L330.688 249.899L332.616 248.064L329.724 245.77L326.831 244.853L323.457 242.559L321.529 240.724V239.348L320.564 237.513H322.975V235.678L320.564 233.384L318.636 232.008L321.529 229.256H326.349V225.127L320.564 220.539L316.708 214.117V212.741H312.851L310.923 211.365L306.585 210.906V212.282L305.138 214.117L303.692 211.365L294.533 210.906L294.051 207.695L293.087 205.86H284.892L282.481 201.731H277.179L270.912 199.896L267.537 198.061L261.752 193.474L256.932 190.721L254.039 187.51L250.665 185.675H246.808L243.434 184.299L239.577 181.087L238.131 182.464L235.721 181.087H231.864L228.49 178.794L227.044 180.17L224.151 178.335L221.741 175.124H218.367L214.992 172.83L213.546 170.536L214.992 167.784L212.582 166.408L208.243 162.738L206.315 160.444L204.869 156.774L200.53 155.398V160.444L198.602 162.738H194.263L192.335 160.444L193.299 155.857V154.022L194.263 151.269V148.975Z" fill="#054365" stroke="#90D8FF"/>
<path d="M121.47 330.244H119.075H118.596V316.894L121.47 315.053H123.865L125.302 312.291L121.47 308.147V307.227H126.739L130.572 304.465V302.163H128.656L126.739 300.782V299.401L128.656 297.559L133.446 296.178L134.883 293.876V284.209L132.009 281.447V274.081L133.446 267.636L135.841 266.716L138.715 263.953L140.631 265.795L139.673 267.636L143.026 269.478H148.775L151.649 270.859L155.481 275.462H151.649V285.13L146.859 286.511V288.352L155.481 288.813L155.96 286.511L158.355 285.13V280.526H166.978L169.373 282.368L173.684 283.288V276.383H175.122L178.475 270.859H173.684L172.726 267.636L173.684 264.874V262.572L176.559 262.112H185.181V254.746H182.307L180.391 256.127L172.247 256.588L168.415 254.746L166.978 252.905L166.02 250.143L166.978 246.46L169.373 245.079L171.289 242.317L176.559 240.015L178.475 237.713H180.391L182.307 234.031H186.618L190.45 232.189H192.367L194.283 229.427H195.72L199.552 226.205V223.442H200.51L207.217 226.205L209.612 225.744L214.402 227.125L218.234 231.268V236.793L216.318 237.713V241.396L213.444 246L211.528 250.143H209.133L207.696 253.365H203.863L201.947 254.746V257.969L203.863 259.35L204.342 263.033L202.426 264.874H200.989V267.636L201.947 269.478V275.923L204.821 276.843L206.738 278.685L209.612 280.987L212.007 281.447L213.923 280.066H216.318V276.383L214.402 272.7H212.965L211.528 269.017L211.049 266.716L208.654 263.033V257.969L214.402 255.207H216.318V259.81L218.234 260.731L223.504 260.271L226.857 263.033H232.605L234.521 260.271L236.916 259.35L237.874 257.969H244.102V263.033H246.497L249.85 261.652H255.12L254.161 264.874L255.12 266.716H258.952L263.263 261.652L269.011 262.112L271.407 263.033L273.802 265.335L277.155 266.716L280.508 267.636L284.819 271.319H291.526L293.921 273.161L294.4 290.194L291.047 291.575H279.55L278.113 290.654L276.197 289.273H271.886L270.928 294.337V297.559H276.197L279.071 299.861H280.508L282.903 301.702V304.004L279.071 307.227L276.197 310.449L273.802 309.989L273.323 315.053L270.928 315.973L268.532 317.815L268.053 319.656H263.263L261.826 320.577L260.389 323.339V324.72L258.473 327.943H256.557L255.12 329.784V333.927L253.203 335.308V341.753L249.85 343.134L249.371 341.753L246.497 340.372L243.623 336.689H239.312V338.991L235 338.07L234.042 336.229L231.647 337.61H229.252L227.336 334.848L226.378 335.308H223.025L220.629 336.229L214.881 338.07L211.049 338.991H209.133L207.696 337.61H204.342L201.468 338.991L200.031 341.753L195.72 342.674H192.367L187.576 341.293L184.702 340.372L187.576 337.61V335.308H179.912L174.163 336.229L173.684 338.991L170.81 341.753L169.852 345.896L163.146 346.357L161.23 348.198L158.355 345.896L156.918 341.753L155.481 342.674H146.38L141.589 340.372H138.715L136.32 337.61L131.051 336.229L126.739 335.308L123.865 332.086V328.403L121.47 330.244Z" fill="url(#paint6_linear_991_19571)" fill-opacity="0.6" stroke="#90D8FF"/>
<path d="M319.485 212.327H316.606V213.7L320.444 220.108L326.202 224.685V228.804H321.404L318.525 231.55L320.444 232.923L322.843 234.754V237.043H320.444L321.404 238.873V240.247L323.323 242.077L326.682 244.366L330.04 245.281L332.439 247.57L330.52 249.401L326.202 250.316L323.323 249.401L321.404 249.858L319.485 251.689L317.085 253.52L314.207 254.893L312.767 256.266L309.409 257.181L307.969 258.555L305.57 261.758V264.962L306.05 267.251L308.449 268.624L310.368 271.37L309.888 274.574H318.045L319.964 272.743L321.404 273.659L324.283 275.947L328.121 277.32L329.081 280.524H332.439L334.838 276.405L336.758 274.574L338.677 278.236H340.596L344.914 275.947H351.152L354.031 274.116V269.539H359.309L362.667 271.828L364.107 274.574L366.506 276.405L368.425 279.151L370.344 278.693L371.304 277.32V276.405L372.743 272.743L376.582 273.201H379.94L381.86 271.37V265.42L389.057 260.385L390.496 258.555H396.734V254.435L401.052 253.52L402.971 251.231L402.491 249.858L398.653 247.112L396.734 244.824V243.45L403.931 238.873L404.89 234.754H406.33L407.289 232.466L404.89 228.804L401.052 232.466L398.653 233.381H390.016L388.097 234.754L382.339 233.381L380.42 230.177H378.501L376.582 233.381H375.142L370.344 230.177H369.385L360.748 227.889L357.869 230.177L354.511 228.804V225.6L352.112 223.769L350.192 225.6L347.793 226.058H343.955V225.6L340.596 223.769L339.157 221.939L337.237 222.396L332.919 219.65L331.48 217.362L331.96 214.158H330.04L323.803 210.496L321.404 210.954L319.485 212.327Z" fill="url(#paint7_linear_991_19571)" fill-opacity="0.6" stroke="#90D8FF"/>
<path d="M87.4314 375.976V369.543H90.7859V365.867L94.1404 364.948L97.495 367.245H102.766V360.813L103.725 357.137L107.079 358.056H110.434L111.871 355.758V349.325L105.162 347.028L107.079 345.649H110.434L113.788 342.892L115.226 339.676L118.58 337.838H113.788L110.434 336.46V333.703L115.226 330.486H118.58V330.027H121.935L123.852 328.189V331.865L126.727 335.081L136.311 337.379L138.707 340.135H141.583L146.375 342.433H155.48L156.918 341.514L158.355 345.649L161.231 347.947L163.147 346.109L169.856 345.649L170.815 341.514L173.69 338.757L174.169 336L179.92 335.081H187.587V337.379L184.712 340.135L192.38 342.433H195.734L200.047 341.514L201.485 338.757L204.36 337.379H207.715L209.152 338.757H211.069L223.049 335.081H226.404L227.362 334.622L229.279 337.379H231.675L234.071 336L235.03 337.838L239.343 338.757V336.46H243.656L246.531 340.135L249.406 341.514L250.365 344.271L245.093 348.866L247.489 352.542L247.969 355.299L246.531 358.056L250.365 360.353V364.488H246.531V367.245H248.927V369.083L246.531 370.921V373.678L249.406 375.516L253.24 380.111V384.706H249.406L247.969 382.868H246.531L245.573 385.625V390.22L243.656 391.598V398.491L241.26 398.031H238.864L236.947 396.193V392.977L235.988 390.679V385.166L236.947 384.247L235.988 381.949L233.592 378.733H231.675V381.03H228.321L226.404 380.111L223.049 379.192L222.57 377.814H219.216L218.257 378.733H215.861L214.424 376.435L212.507 374.138H207.235L203.881 373.219V378.273L201.964 382.868V384.706L199.568 386.085L195.255 384.706L194.296 385.625L191.9 390.679L195.255 394.815V396.193L192.859 398.031L191.9 399.41L189.984 401.248L188.067 402.167L187.587 404.924H184.712L184.233 404.005L183.275 403.086L181.837 403.545L179.441 406.762L177.045 408.6H174.169L173.211 410.438V414.113H171.294L169.856 417.789H164.106L162.668 421.465V424.682H160.751L156.918 423.763L155.001 424.682L149.25 422.844H147.813L146.375 425.601L147.813 427.898V432.493H140.624L139.187 434.791H136.791L135.353 433.412L132.478 434.791L131.519 437.548L128.165 438.466V441.683L125.769 440.304H122.893L120.977 441.683V444.899L122.893 447.656H125.769L125.289 452.711L123.852 454.089L120.018 459.603H113.788L112.351 461.441L110.913 462.36L108.996 459.144L106.121 455.468V450.873L104.204 449.035L102.766 445.818V441.223L101.329 437.548V435.25L100.37 430.655V427.898L98.9326 424.682V421.925L97.0157 418.708V415.951L95.0989 412.735L95.5781 410.438L93.182 405.843V400.329L90.7859 398.491V381.949L87.4314 375.976Z" fill="#054365" stroke="#90D8FF"/>
<path d="M111.698 461.277L110.255 462.206L109.774 464.993H111.698V466.387L113.141 469.639L114.584 471.498V474.75L116.509 477.073L117.952 475.214H119.395L120.357 474.285V461.277L119.395 459.418H113.141L111.698 461.277Z" fill="url(#paint8_linear_991_19571)" fill-opacity="0.6" stroke="#90D8FF"/>
<path d="M116.832 477.813V476.894L118.265 475.056H119.699L120.654 473.678V461.273L120.176 458.976L123.52 453.922L124.954 452.544L125.431 447.49H122.565L120.654 444.733V441.517L122.565 440.139H125.431L127.82 441.517V438.301L131.164 437.382L132.12 434.625L134.986 433.247L136.419 434.625H138.808L140.241 432.328H147.407V427.734L145.974 425.437L147.407 422.68H148.84L154.573 424.518L156.484 423.599L160.306 424.518H162.216V421.302L163.65 417.626H169.382L170.816 413.951H172.726V410.275L173.682 408.438H176.548L178.937 406.6L181.326 403.384L182.759 402.924L183.714 403.843L184.192 404.762H186.581L187.058 406.6V413.951L186.581 415.329L186.103 419.005L188.492 421.302L187.536 422.68L187.058 424.058L184.192 425.437L183.714 427.274L184.192 429.572V436.923L183.714 441.517H181.803V444.274H183.714L187.058 445.652V449.327L186.103 452.084L183.714 453.003H178.937L177.981 453.922V460.354L176.548 463.111V465.867L178.459 468.164L178.937 470.921L176.071 472.299L170.816 471.84L171.771 474.597L172.726 476.434L170.816 478.731V481.488L171.771 482.866L172.726 485.164L173.682 485.623V490.217L174.637 487.92L177.981 487.461H180.848L183.714 487.92V492.974H178.937L177.981 490.217H176.071L174.637 491.596L174.16 493.433L175.593 494.812V497.568L176.071 498.947L179.415 498.487L182.281 495.731L186.103 498.487L191.358 496.19L193.269 495.731L195.18 496.19H197.091L197.568 498.028L198.524 500.325L200.435 501.244H203.301L204.734 504V507.676H208.556V508.595L205.69 511.811V515.946L202.823 516.405L200.435 518.243L197.568 516.405H195.18L192.313 515.946L191.358 517.324L189.925 520.081H187.058L187.536 524.675L186.103 526.513V529.27L190.402 530.648V532.945V535.242L185.625 535.702L184.67 537.08H177.504L174.16 538.458L172.249 541.215H169.382L166.994 538.458H163.65L161.739 537.08H158.872L156.484 535.702L152.184 534.323L150.751 532.026L146.929 530.188L144.54 527.432L141.674 525.135L139.763 522.378L133.075 518.702L131.642 515.027H130.686V508.135L129.731 504.919V501.244L128.298 498.487V497.109L125.431 494.812V488.839L122.565 487.461V483.785L119.221 479.191L116.832 477.813Z" fill="#054365" stroke="#90D8FF"/>
<path d="M134.362 522.044L133.883 518.854L140.111 522.5L142.027 525.234L144.902 527.513L147.297 530.247L151.13 532.069L153.046 534.348L156.879 535.715L159.274 537.082H162.149L164.065 538.449L165.023 541.639L162.149 543.462L163.586 547.107H166.461L167.419 550.297L170.293 550.753L171.731 553.942L171.252 557.132L173.168 561.233V564.423L174.605 567.157L177.001 568.524L179.396 567.157H180.833L181.312 570.347V579.461L182.271 583.106L185.624 583.562L184.666 586.752L181.312 588.119V590.397L179.396 594.043L180.833 597.233V599.055L181.312 600.878V604.524L179.396 607.714L175.563 604.524L173.168 600.878H171.252L170.293 597.233L167.419 593.132L165.023 590.397V586.296L163.586 583.562V582.195H165.023L163.586 575.815V573.993L162.149 572.626L160.712 568.069L158.316 564.423V563.056L156.879 558.955L154.004 557.132L153.046 553.487V550.753L148.734 544.373L146.339 538.449H144.423L141.548 534.804L139.632 530.702L134.362 522.044Z" fill="url(#paint9_linear_991_19571)" fill-opacity="0.6" stroke="#90D8FF"/>
<path d="M404.216 218.735L400.821 216.462L401.791 214.188V208.731L403.246 206.912V204.639L404.216 201.001L406.642 201.456L408.582 200.091L412.463 198.727H418.284V203.729L420.224 205.093L419.254 208.731V214.643L418.284 216.007L416.828 216.916L411.978 217.371L410.037 218.735H404.216Z" fill="url(#paint10_linear_991_19571)" fill-opacity="0.6" stroke="#90D8FF"/>
<path d="M483.581 210.73V224.12L487.436 221.812L492.738 222.273L495.147 219.965H499.967L503.822 222.273H516.353L517.317 220.888L521.172 220.426L522.136 216.733L524.064 215.347L524.546 212.577L529.847 208.883L533.221 209.345L535.631 205.651H538.522L539.486 204.266L544.788 203.804L547.197 201.957H551.053L553.945 201.496L555.872 198.725H561.656L563.584 200.572L561.656 205.651V209.345L563.102 212.577V215.347L559.728 214.886L555.39 215.809L552.981 218.579L551.053 219.041L549.125 221.812L549.607 228.737L555.39 225.967L559.728 222.735L565.993 216.733L570.331 215.347H573.704L577.56 214.424L579.97 215.347L581.415 216.733L583.343 217.194L585.271 219.503H587.199V215.347L584.789 213.501L583.825 211.192L583.343 207.498L584.789 205.189L587.199 202.881L589.609 202.419L592.5 200.572V194.57L591.536 192.261L588.645 190.876L586.717 191.338H583.825L583.343 188.567L581.415 188.106L579.97 186.259L578.524 185.797L574.668 187.182L575.15 185.335L576.596 183.489V181.18L574.668 177.024L571.777 174.716L570.813 173.792L571.777 170.56L570.813 169.637H568.885L568.403 168.713H561.174L560.692 169.637L558.282 170.56L556.836 172.407L553.463 173.331L551.053 175.178L547.197 174.716L544.788 173.331H541.896L539.968 171.484L534.667 170.56L531.775 171.484L531.293 176.101L527.92 178.871L525.028 181.642L521.172 182.103L520.208 183.489L515.389 184.874L512.497 184.412L511.051 185.797L506.232 188.567V190.414H503.34L502.858 192.723L499.485 195.955L497.557 196.417V199.649L494.665 202.419L488.4 203.343H486.954L483.581 204.728H479.725L476.833 203.343L474.906 207.96L476.833 210.73H483.581Z" fill="url(#paint11_linear_991_19571)" fill-opacity="0.6" stroke="#90D8FF"/>
<path d="M547.184 221.677H549.101L549.58 228.612L547.184 229.999V231.849L545.268 234.623L547.184 240.171L549.101 242.483L546.226 245.72L544.789 246.644L544.31 249.881L542.393 250.343L540.956 252.655L539.519 254.505L538.561 254.967L537.123 255.892V253.118L535.686 251.731H533.77L531.853 252.655L529.458 254.042H527.542L523.709 252.655H520.834L518.918 254.042V257.741L516.043 260.516H511.732L513.648 257.279V255.43L510.773 254.042L511.732 250.343L514.606 248.494L517.481 245.257L520.355 246.182L523.709 242.946L525.625 239.709L526.583 237.859L529.458 233.698L532.812 231.386H533.77L539.519 226.3L547.184 221.677Z" fill="url(#paint12_linear_991_19571)" fill-opacity="0.6" stroke="#90D8FF"/>
<path d="M510.98 261.265L511.933 260.353H516.224L519.084 257.616V253.968L520.991 252.6H523.852L527.666 253.968H530.049L533.863 251.688H535.77L537.2 253.056V255.336L535.77 260.353L539.107 262.633L539.584 263.545L538.154 267.65L536.724 269.474L535.77 271.298L533.863 273.123L531.956 276.315L531.003 279.964L529.096 282.7V284.98L528.142 288.173H523.375L521.468 287.261H518.131L514.794 286.804H512.887L510.98 285.892V284.524H504.306V275.403L507.166 272.21V267.65L508.596 265.826L510.026 263.545L510.98 261.265Z" fill="url(#paint13_linear_991_19571)" fill-opacity="0.6" stroke="#90D8FF"/>
<path d="M502.043 276.994L503.951 277.912V284.344H510.63V285.723L512.538 286.641L511.584 288.02V294.911L512.538 298.586V305.018L511.584 306.397L508.722 307.315L507.291 309.153L506.337 310.991V317.423L507.291 319.968V323.854L502.997 327.07L502.52 329.368L498.227 327.07H496.796L496.319 327.989H494.888V323.395V319.72L493.934 319.26V314.666L491.548 309.612L490.594 306.397V300.424L489.64 298.586L488.209 294.911L487.255 293.533L490.117 288.939V285.723L491.071 282.966L492.98 281.128L497.75 279.75L499.181 277.912L502.043 276.994Z" fill="url(#paint14_linear_991_19571)" fill-opacity="0.6" stroke="#90D8FF"/>
<path d="M307.127 280.352L306.158 283.55H308.58L310.033 284.92V288.118L315.846 294.057V295.885H318.268V300.453L319.721 303.194L321.658 306.392L325.049 308.219H326.987V311.874L323.112 313.701L319.721 315.529V319.64L320.69 320.097L328.924 322.838L332.315 321.011L339.096 319.64L342.487 320.097V322.838L340.55 326.036L342.487 327.863H344.909L346.847 326.95L352.659 326.036L354.113 327.863L359.441 328.777L361.379 326.036V320.097L362.347 318.726H365.738L367.676 321.011L373.488 322.838L375.91 324.209L377.364 322.381V320.097L374.457 315.529L370.582 313.701L369.129 311.874V310.96L370.582 310.047V308.219H365.738L362.347 306.392L359.441 304.564V297.712L361.379 295.885H362.347L363.801 297.712L366.707 297.255L368.644 295.885L370.582 294.057H374.457L375.91 291.773L377.364 289.489L381.239 287.661L382.207 289.489L385.598 291.316L387.051 290.402V285.834H390.927L392.38 283.093H393.348L394.802 281.266V279.438H396.739V276.24L397.708 274.413L399.646 273.956V268.474L397.224 263.906V259.337H390.927L389.473 261.165L382.207 266.19V272.586L380.27 273.956L376.879 273.499H373.488L371.551 277.154V278.068L370.582 279.438H368.644L366.707 277.154L364.285 275.327L362.832 272.586L359.441 270.302H354.113V275.327L350.722 277.154H344.909L340.55 279.438H338.612L336.675 275.327L334.253 277.154L332.315 281.266H328.924L327.955 278.525L323.112 276.24L319.721 273.499L317.783 275.327H307.127V276.24L308.58 278.525L307.127 280.352Z" fill="url(#paint15_linear_991_19571)" fill-opacity="0.6" stroke="#90D8FF"/>
<path d="M479.199 224.019H484L487.84 221.719L493.121 222.179L495.521 219.88H500.322L504.163 222.179H516.644L517.604 220.8L521.445 220.34L522.405 216.661L524.325 215.282L524.806 212.523L530.086 208.844L533.447 209.304L535.847 205.625H538.728L539.688 204.245L544.968 203.786L547.369 201.946H551.209L554.09 201.486L556.01 198.727H561.771L563.691 200.567L561.771 205.625V209.304L563.211 212.523V215.282L560.331 214.822L555.53 215.741L553.13 218.501L551.209 218.96L549.289 221.719H547.369L539.688 226.318L534.407 230.916H533.447L530.086 233.216L526.726 238.734L523.845 242.872L520.485 246.091L517.604 245.171L514.724 248.39L511.844 250.23L511.364 253.908L513.764 255.288V257.127L511.364 261.266L509.923 263.565L508.963 265.864L507.043 267.704V272.302L504.163 275.521V278.28L502.242 277.36L499.362 278.28L498.402 280.12L492.641 281.499L491.201 282.879L489.28 277.82L485.92 275.521L487.36 271.383V268.623L488.8 267.704H490.721H492.641V265.864L490.721 264.945V264.485L498.882 258.967V257.127L497.442 256.668L494.561 251.609L489.28 248.39L487.36 247.931V244.252L490.721 241.953H479.199L476.319 243.792L474.878 246.091L472.478 246.551L471.038 247.931H468.157L466.717 246.551L462.397 244.712H459.996L456.156 243.792H447.034L444.634 244.252L443.674 245.171L441.274 247.931V250.69L439.833 250.23L438.873 248.39V245.171L436.953 241.953L435.513 239.653L436.953 238.274H438.393V233.675L440.314 232.296V229.537L438.393 227.697L437.913 226.318L443.674 226.778L446.554 224.019H449.915L453.275 225.398L475.839 225.858L479.199 224.019Z" fill="url(#paint16_linear_991_19571)" fill-opacity="0.6" stroke="#90D8FF"/>
<path d="M440.249 251.782L441.202 250.405V247.651L444.54 243.979L446.925 243.52H455.985L459.8 244.438H462.184L466.476 246.274L467.43 247.651H470.768L472.198 246.274L474.583 245.815L476.013 243.52L478.874 241.684H490.319L486.981 243.979V247.651L488.888 248.11L494.134 251.323L496.995 256.372L498.426 256.831V258.667L490.319 264.634L486.981 263.716L485.073 260.503H479.828L475.059 261.88H470.768L468.383 260.044H464.092L461.707 260.962L458.846 260.503L455.508 261.421H448.355L445.494 259.585L444.063 260.044L440.249 259.126L438.818 258.208L437.864 255.913L440.249 253.618V251.782Z" fill="url(#paint17_linear_991_19571)" fill-opacity="0.6" stroke="#90D8FF"/>
<path d="M199.429 34.9379H188.878V32.6448L186.959 29.4345L182.163 28.0586L178.326 25.7655L176.887 22.5552L173.53 19.3448L168.734 17.5103L164.897 13.8414L161.54 13.3827L158.183 8.33792L153.866 5.5862V1H151.948L147.631 2.37586H145.233L141.876 1H138.519L135.161 2.37586H122.212V5.5862H110.222L111.181 8.33792L107.824 13.8414L104.466 13.3827L101.109 17.0517L99.1906 22.5552L104.466 25.7655L111.181 26.2241L113.099 30.8103L119.814 32.6448V34.9379L122.691 35.3965L125.09 38.6069L132.284 41.8172H137.559L138.519 45.4862L145.233 46.862H148.59L150.988 51.9069V56.4931L151.948 59.7034L153.866 58.7862L158.183 61.9965V64.7482H160.101L162.02 67.9586L166.816 70.2517L164.897 76.2137H168.734L171.612 77.5896L176.887 83.093V84.9275L180.245 87.2206H186H188.878L190.316 85.8447L193.194 87.2206L196.072 90.431V92.7241L198.47 93.6413L203.266 92.7241V93.6413L207.103 95.4758L209.98 97.7689L212.858 93.6413V98.6861H219.573L221.491 97.7689H223.41L225.808 93.6413V78.9654H220.532L215.736 76.2137L216.695 72.5448L217.654 70.2517L216.695 67.9586L215.736 63.831H225.808L227.246 58.7862V55.1172H231.083V53.7413V50.9896H236.359L238.277 48.2379V43.1931L239.716 37.6896V34.9379L236.359 32.6448V31.2689H232.522L230.124 30.3517L225.808 26.6827L223.41 22.5552H216.695L211.899 28.0586L199.429 34.9379Z" fill="url(#paint18_linear_991_19571)" fill-opacity="0.6" stroke="#90D8FF"/>
<path d="M401.27 219.927L400.311 216.251L403.668 218.548H409.421L411.339 217.17L415.655 216.711L417.093 215.792L418.532 219.927L420.929 222.224V224.061H430.518L433.395 226.358H437.231L437.711 227.736L439.629 229.574V232.33L437.711 233.709V238.303H436.272L434.834 239.681L433.395 240.14L432.436 243.815H431.957L429.08 242.897L425.724 240.6L423.326 238.762V236.006L421.408 234.168H419.97V236.924H418.532L415.655 235.546L410.86 236.006L403.668 242.897V245.194L406.545 247.491L408.462 248.409L409.901 252.085L413.257 255.3L416.134 254.841L418.532 256.679L420.929 259.435L420.449 260.813H416.134L411.819 261.732L409.421 263.57L408.942 265.407L402.709 269.542V273.217L403.668 275.055L405.586 276.892L407.503 277.811L409.421 279.189H415.175V283.783L416.134 285.621V287.459L414.216 289.296L411.819 290.674V292.512L413.257 295.268L413.737 296.187L416.134 297.565L416.614 301.241L420.449 305.835L419.011 309.969V312.726L420.929 315.941V322.832L422.847 326.508V328.345L419.97 329.264L422.847 332.02V339.371L419.97 337.533H414.216V332.48H413.737L411.819 337.533H408.462L405.586 335.236L403.668 332.48V328.805L405.586 326.508L402.709 324.67L400.311 319.617L399.832 320.995V322.832L401.75 325.589L402.229 326.967V328.805L400.791 331.102L399.352 332.939L393.119 336.155L391.681 336.614L390.722 335.696L389.763 333.858L388.804 332.939H385.927L383.53 329.264L379.214 326.967L375.378 324.211L376.817 322.373V320.076L373.94 315.482L370.104 313.644L368.666 311.807V310.888L370.104 309.51V308.132H365.309L359.076 304.456V297.565L360.994 295.728H361.953L363.391 297.565L366.268 297.106L368.186 295.728L370.104 293.89H373.94L376.817 289.296L380.653 287.459L381.612 289.296L384.968 291.134L386.406 290.215V285.621H390.242L391.681 282.865H392.64L394.078 281.027V279.189H395.996V276.433L396.955 274.136L398.873 273.677V268.164L396.475 263.57V254.841L401.27 253.922L402.709 251.166L402.229 249.788L398.393 247.491L396.475 244.734V243.815L403.668 239.221L404.627 235.087H406.065L407.024 232.79L404.627 229.115L402.229 230.952L403.668 225.899V222.683L401.27 219.927Z" fill="#054365" stroke="#90D8FF"/>
<path d="M247.594 400.295L243.245 398.462V391.59L245.178 390.216V385.634L246.144 382.885H247.594L249.043 384.718H252.909V384.26V380.136L249.043 375.555L246.144 373.722V370.973L248.56 369.141V367.308H246.144V364.559H250.01V360.436L246.144 358.145L247.594 355.396L247.11 353.105L244.694 348.982L250.01 344.401L249.527 343.026L252.909 341.652V335.237L254.842 333.863V329.74L256.292 327.907H258.224L260.157 324.7V323.326L261.607 320.577L263.057 319.66H267.889L268.372 317.828L270.788 315.995L273.204 315.079L273.687 309.581L276.104 310.497L279.003 307.748L282.869 304.083V301.792L280.453 299.96H279.003L276.104 297.669H270.788V294.004L271.755 289.422H276.104L279.486 291.713H291.083L294.466 290.339V289.422H302.681L304.614 286.215L307.03 283.466H308.963L310.412 285.299V288.048L316.211 294.004V295.836H318.627V300.418L322.009 306.374L325.392 308.207H327.325V311.872L320.077 315.537V319.66L318.144 320.577L312.828 325.616L310.412 326.533V332.947L308.963 335.696L307.513 337.986L306.546 340.735L303.164 345.775L301.714 346.233V347.149H291.567L288.184 350.815H286.734V369.141H293.016L294.466 373.264L291.567 375.555L283.835 370.973L278.036 369.141L275.137 370.973V373.264L276.587 375.555L279.486 379.22V381.511L281.419 385.634V395.714L279.486 398.462L273.687 404.877L269.822 407.167L268.372 409.916V415.872L265.956 415.414H259.191L257.741 414.498L256.292 411.291L254.842 409H252.909L250.976 405.335V403.044L250.01 402.128L247.594 400.295Z" fill="url(#paint19_linear_991_19571)" fill-opacity="0.6" stroke="#90D8FF"/>
<path d="M273.42 415.41L269.117 415.871V409.881L270.073 407.116L274.376 404.812L280.114 398.822L282.027 395.596V384.998L280.114 381.312V378.087L276.289 373.479V370.714L279.158 368.871L284.896 371.175L292.068 375.322L294.937 372.557L293.503 368.871H287.286V350.44H288.721L292.068 346.753H302.109V345.832L303.544 345.371L306.891 340.302L307.847 337.538L310.716 332.469V326.018L313.107 325.097L318.367 320.028L320.279 319.106L329.364 322.332L332.711 320.489L339.406 319.106L342.753 319.567V322.332L340.84 325.557L342.753 327.4H345.622L347.056 326.479L352.794 325.557L354.229 327.4L359.488 328.322L361.401 325.557V319.567L362.357 318.185L366.182 318.646L367.139 320.489L373.355 322.332L375.746 323.714L380.049 326.479L384.352 328.783L386.265 332.008H388.656L390.09 333.391L391.047 335.234L392.003 336.155L386.265 337.077L382.918 338.92L381.005 340.302V342.146L378.615 344.449V349.518L380.049 352.283L381.005 355.508L380.049 359.195L377.658 360.577V363.802L373.355 365.185L371.442 367.489L370.008 370.714L368.573 371.636L368.095 370.714L366.182 370.253L364.27 367.949L364.748 372.557V373.479H362.357L359.966 374.4L354.229 373.94L351.36 372.557H348.012L344.187 376.244L344.665 378.087L343.231 379.93L342.753 383.155L340.362 385.459L337.493 388.685L333.19 388.224L330.321 390.528H327.452V394.675H320.758L316.454 394.214L312.629 390.528L311.673 388.685L306.891 388.224L305.456 390.528V396.057H302.109L301.631 403.43L296.371 403.891L296.85 404.812L290.155 405.734L289.677 403.43H288.243V401.126H286.33L285.374 402.969V411.263L282.505 410.342L279.158 412.645L277.245 412.185L273.42 414.028V415.41Z" fill="url(#paint20_linear_991_19571)" fill-opacity="0.6" stroke="#90D8FF"/>
<path d="M264.28 419.692V415.576H260.413L258.479 414.662L257.029 411.918L255.578 409.174H253.644L251.711 405.515V403.229L248.326 400.485L243.975 398.655L241.558 398.198H239.141L237.207 396.369V393.167L236.24 390.669V385.393L237.207 384.478L236.24 382.192L233.823 378.99H231.889V381.277H228.989L226.571 380.362L223.187 379.448L222.704 378.076H219.32L218.353 378.99H215.936L214.485 376.704L212.552 374.417H207.717L203.85 373.502V378.533L201.916 383.106V384.936L199.499 386.308L195.148 384.936L194.181 386.308L191.763 390.881L195.148 394.997V396.369L192.73 398.198L192.247 399.113L189.83 401.399L187.896 402.314L187.412 405.058H186.929L187.412 406.887V414.204L186.929 415.576L186.446 419.235L188.863 421.522L187.896 422.894L187.412 424.266L184.512 425.638L184.028 427.467L184.512 429.754V437.071L184.028 441.644L182.095 442.101V444.388H184.028L187.412 445.76V449.419L186.446 452.162L188.379 453.534L194.664 448.961L199.015 447.132L205.3 448.961L212.068 446.217L215.452 448.961L222.22 446.217V443.473L227.055 439.815H229.956L232.856 440.729L235.757 437.985L237.691 435.699L241.558 432.04L244.942 430.211L246.393 432.04H249.777L250.744 427.924L254.611 425.638H257.029L261.38 427.924L262.83 423.808H269.115V420.607L266.214 419.692H264.28Z" fill="url(#paint21_linear_991_19571)" fill-opacity="0.6" stroke="#90D8FF"/>
<path d="M241.443 504.801L243.833 502.966V511.224L242.399 515.812V519.942L241.443 521.777L240.487 525.906L239.053 526.824L237.619 529.118L235.708 530.494L233.318 533.706H230.928V536.918L232.362 538.294V545.635L230.928 546.553L233.318 548.847V566.281L231.884 567.199H225.671L223.759 568.575L222.803 570.411V574.999L219.936 575.916L217.546 579.587L216.112 582.34L217.068 585.551L219.936 586.469L225.671 586.928L226.627 589.68L223.759 588.304H214.678L210.377 589.222L208.943 590.598L206.075 591.975H203.686L200.818 596.104V602.068L198.906 604.821L192.215 608.95L190.303 609.868L187.435 611.244H182.178L179.31 608.033L181.222 604.821V600.692L180.744 599.315V597.48L179.31 594.269L181.222 590.598V588.304L184.568 586.928L185.524 583.716L182.178 583.257L181.222 579.587V570.411L180.744 567.199H179.31L176.921 568.575L174.531 567.199L173.097 564.446V561.234L171.185 557.105L171.663 553.893L170.229 550.682L167.362 550.223L166.406 547.011L163.538 546.553L162.104 543.341L164.972 541.506L164.016 538.294H167.362L169.752 541.047H172.619L174.531 538.294L177.877 536.918H185.046L186.002 535.541L190.781 535.082V530.494L186.48 528.659V526.365L187.913 524.53L187.435 519.942H190.303L191.259 517.189L192.693 515.812L195.56 516.271H197.95L203.208 519.942L207.509 519.483L208.943 517.189L210.377 514.436L213.244 512.601H218.024L221.847 511.683L224.237 508.472H233.318L237.619 503.883L241.443 504.801Z" fill="url(#paint22_linear_991_19571)" fill-opacity="0.6" stroke="#90D8FF"/>
<path d="M335.403 391.088L337.32 389.259L333.007 388.802L330.132 390.631H327.257V395.203H319.589L316.235 394.746L312.401 391.088L311.442 389.259L306.65 388.802L305.213 391.088V396.575L301.858 397.032L301.379 403.891L296.108 404.348L296.587 405.263L289.878 406.177L289.398 403.891H287.961V401.605H286.044L285.086 403.891V411.664L282.21 410.749L278.856 413.493L276.939 412.121L273.105 414.407V415.779H269.271H266.875L264 415.322V419.894H265.917L268.792 420.809V424.01H262.562L261.125 428.125L256.812 425.838H254.416L250.582 428.125L249.624 432.24H246.269L244.831 430.411L240.998 432.24L237.643 435.898L236.206 437.727L232.851 440.928L230.455 440.013H227.1L222.308 443.671V446.414L215.599 449.158L212.245 446.414L205.536 449.158L199.306 447.329L194.514 449.158L188.763 453.73L186.846 452.359L184.45 453.273H179.658L178.7 454.188V460.589L177.262 463.79V466.076L179.179 468.362L179.658 471.106L176.304 472.477L171.511 471.563L172.47 474.764L173.428 476.593L171.511 478.879V481.622L172.47 482.994L173.428 485.28L174.387 485.737V489.853L175.345 488.024L178.7 487.566H182.054L184.45 488.024V493.053H179.658L178.7 490.31H176.783L175.345 491.682L174.866 493.511L176.304 494.882V497.626L176.783 498.997L180.137 498.54L183.013 495.797L186.846 498.54L192.118 496.254L194.035 495.797L195.951 496.254H197.868L199.306 500.369L201.223 500.826L204.098 501.284L205.536 504.027V507.685H209.369V508.6L206.494 511.8V515.916L203.619 516.373L201.223 518.202L203.619 520.031L207.932 519.573L209.849 516.83L210.807 514.544L213.682 512.715H218.475L222.308 511.8L224.704 508.6H233.809L238.122 504.027L241.956 504.942L244.352 503.57V500.369L241.956 494.882L240.998 489.853L241.956 487.109V484.366L240.039 479.793L239.56 469.277L241.477 466.076V464.704L246.748 457.846L250.103 456.474H253.937L254.895 457.846H256.333L258.249 456.931L261.125 454.645V452.359L262.562 450.072V445.957H275.501L285.086 441.842L286.044 440.47V429.954L289.398 428.125L296.108 425.838L301.858 423.095L305.213 419.437L306.65 417.151L309.046 415.779L311.442 413.036L312.88 410.749L316.235 408.463L318.151 406.634H320.068L321.985 404.805L324.86 403.434L330.132 398.404L333.007 395.203L335.403 391.088Z" fill="url(#paint23_linear_991_19571)" fill-opacity="0.6" stroke="#90D8FF"/>
<path d="M485.534 277.044L486.507 275.228L489.424 277.498L491.369 282.491L490.397 285.669V288.847L487.479 293.387H484.562L483.59 294.294L481.645 297.018V299.742H480.186L479.214 302.92V307.005H473.865L471.434 303.374H469.976L469.49 299.742L467.058 297.926L466.086 294.294V289.755L468.031 287.939L475.324 282.945H477.755L481.645 280.676V279.768L482.617 277.952L485.534 277.044Z" fill="url(#paint24_linear_991_19571)" fill-opacity="0.6" stroke="#90D8FF"/>
<defs>
<linearGradient id="paint0_linear_991_19571" x1="122.881" y1="37.7472" x2="155.072" y2="102.791" gradientUnits="userSpaceOnUse">
<stop stop-color="#B3CCDE" stop-opacity="0.16"/>
<stop offset="1" stop-color="white"/>
</linearGradient>
<linearGradient id="paint1_linear_991_19571" x1="124.674" y1="94.6978" x2="163.119" y2="159.97" gradientUnits="userSpaceOnUse">
<stop stop-color="#B3CCDE" stop-opacity="0.16"/>
<stop offset="1" stop-color="white"/>
</linearGradient>
<linearGradient id="paint2_linear_991_19571" x1="202.733" y1="120.176" x2="233.62" y2="183.857" gradientUnits="userSpaceOnUse">
<stop stop-color="#B3CCDE" stop-opacity="0.16"/>
<stop offset="1" stop-color="white"/>
</linearGradient>
<linearGradient id="paint3_linear_991_19571" x1="135.704" y1="132.835" x2="176.542" y2="203.229" gradientUnits="userSpaceOnUse">
<stop stop-color="#B3CCDE" stop-opacity="0.16"/>
<stop offset="1" stop-color="white"/>
</linearGradient>
<linearGradient id="paint4_linear_991_19571" x1="57.3618" y1="149.071" x2="134.902" y2="314.858" gradientUnits="userSpaceOnUse">
<stop stop-color="#B3CCDE" stop-opacity="0.16"/>
<stop offset="1" stop-color="white"/>
</linearGradient>
<linearGradient id="paint5_linear_991_19571" x1="25.1446" y1="268.716" x2="71.6804" y2="377.62" gradientUnits="userSpaceOnUse">
<stop stop-color="#B3CCDE" stop-opacity="0.16"/>
<stop offset="1" stop-color="white"/>
</linearGradient>
<linearGradient id="paint6_linear_991_19571" x1="152.973" y1="220.404" x2="207.367" y2="363.174" gradientUnits="userSpaceOnUse">
<stop stop-color="#B3CCDE" stop-opacity="0.16"/>
<stop offset="1" stop-color="white"/>
</linearGradient>
<linearGradient id="paint7_linear_991_19571" x1="325.461" y1="208.791" x2="355.304" y2="289.533" gradientUnits="userSpaceOnUse">
<stop stop-color="#B3CCDE" stop-opacity="0.16"/>
<stop offset="1" stop-color="white"/>
</linearGradient>
<linearGradient id="paint8_linear_991_19571" x1="111.843" y1="458.989" x2="123.341" y2="471.827" gradientUnits="userSpaceOnUse">
<stop stop-color="#B3CCDE" stop-opacity="0.16"/>
<stop offset="1" stop-color="white"/>
</linearGradient>
<linearGradient id="paint9_linear_991_19571" x1="144" y1="516.69" x2="202.034" y2="579.633" gradientUnits="userSpaceOnUse">
<stop stop-color="#B3CCDE" stop-opacity="0.16"/>
<stop offset="1" stop-color="white"/>
</linearGradient>
<linearGradient id="paint10_linear_991_19571" x1="404.615" y1="198.24" x2="415.726" y2="218.31" gradientUnits="userSpaceOnUse">
<stop stop-color="#B3CCDE" stop-opacity="0.16"/>
<stop offset="1" stop-color="white"/>
</linearGradient>
<linearGradient id="paint11_linear_991_19571" x1="497.9" y1="167.252" x2="517.951" y2="240.419" gradientUnits="userSpaceOnUse">
<stop stop-color="#B3CCDE" stop-opacity="0.16"/>
<stop offset="1" stop-color="white"/>
</linearGradient>
<linearGradient id="paint12_linear_991_19571" x1="518.362" y1="220.731" x2="539.584" y2="260.226" gradientUnits="userSpaceOnUse">
<stop stop-color="#B3CCDE" stop-opacity="0.16"/>
<stop offset="1" stop-color="white"/>
</linearGradient>
<linearGradient id="paint13_linear_991_19571" x1="511.204" y1="250.799" x2="531.496" y2="287.346" gradientUnits="userSpaceOnUse">
<stop stop-color="#B3CCDE" stop-opacity="0.16"/>
<stop offset="1" stop-color="white"/>
</linearGradient>
<linearGradient id="paint14_linear_991_19571" x1="492.199" y1="275.718" x2="526.324" y2="306.402" gradientUnits="userSpaceOnUse">
<stop stop-color="#B3CCDE" stop-opacity="0.16"/>
<stop offset="1" stop-color="white"/>
</linearGradient>
<linearGradient id="paint15_linear_991_19571" x1="324.439" y1="257.646" x2="355.749" y2="336.162" gradientUnits="userSpaceOnUse">
<stop stop-color="#B3CCDE" stop-opacity="0.16"/>
<stop offset="1" stop-color="white"/>
</linearGradient>
<linearGradient id="paint16_linear_991_19571" x1="460.577" y1="196.678" x2="495.153" y2="294.772" gradientUnits="userSpaceOnUse">
<stop stop-color="#B3CCDE" stop-opacity="0.16"/>
<stop offset="1" stop-color="white"/>
</linearGradient>
<linearGradient id="paint17_linear_991_19571" x1="449.707" y1="241.125" x2="455.583" y2="270.006" gradientUnits="userSpaceOnUse">
<stop stop-color="#B3CCDE" stop-opacity="0.16"/>
<stop offset="1" stop-color="white"/>
</linearGradient>
<linearGradient id="paint18_linear_991_19571" x1="126.669" y1="-1.37899" x2="168.606" y2="110.988" gradientUnits="userSpaceOnUse">
<stop stop-color="#B3CCDE" stop-opacity="0.16"/>
<stop offset="1" stop-color="white"/>
</linearGradient>
<linearGradient id="paint19_linear_991_19571" x1="259.686" y1="280.242" x2="345.237" y2="381.431" gradientUnits="userSpaceOnUse">
<stop stop-color="#B3CCDE" stop-opacity="0.16"/>
<stop offset="1" stop-color="white"/>
</linearGradient>
<linearGradient id="paint20_linear_991_19571" x1="293.146" y1="315.806" x2="339.364" y2="424.099" gradientUnits="userSpaceOnUse">
<stop stop-color="#B3CCDE" stop-opacity="0.16"/>
<stop offset="1" stop-color="white"/>
</linearGradient>
<linearGradient id="paint21_linear_991_19571" x1="199.111" y1="371.553" x2="240.747" y2="455.877" gradientUnits="userSpaceOnUse">
<stop stop-color="#B3CCDE" stop-opacity="0.16"/>
<stop offset="1" stop-color="white"/>
</linearGradient>
<linearGradient id="paint22_linear_991_19571" x1="178.086" y1="500.329" x2="245.109" y2="594.556" gradientUnits="userSpaceOnUse">
<stop stop-color="#B3CCDE" stop-opacity="0.16"/>
<stop offset="1" stop-color="white"/>
</linearGradient>
<linearGradient id="paint23_linear_991_19571" x1="203.934" y1="385.606" x2="265.833" y2="531.281" gradientUnits="userSpaceOnUse">
<stop stop-color="#B3CCDE" stop-opacity="0.16"/>
<stop offset="1" stop-color="white"/>
</linearGradient>
<linearGradient id="paint24_linear_991_19571" x1="471.03" y1="274.454" x2="490.339" y2="303.069" gradientUnits="userSpaceOnUse">
<stop stop-color="#B3CCDE" stop-opacity="0.16"/>
<stop offset="1" stop-color="white"/>
</linearGradient>
</defs>
</svg>
